# xmcd CD database file
#
# Track frame offsets:
#	150
#	19536
#	31027
#	46357
#	65783
#	79400
#
# Disc length: 1343 seconds
#
# Revision: 0
# Processed by: cddbd v1.4PL0 Copyright (c) Steve Scherf et al.
# Submitted via: CDex 1.40Release
#
DISCID=45053d06
DTITLE=Leslie Doak - Them Days
DYEAR=2001
DGENRE=Country
TTITLE0=Them Days
TTITLE1=Pamela
TTITLE2=Star Light, Star Bright
TTITLE3=Texas Boy And A Yankee Girl
TTITLE4=Cowboy's Dream
TTITLE5=In Your Arms
EXTD=YEAR: 2001 ID3G: 2
EXTT0=
EXTT1=
EXTT2=
EXTT3=
EXTT4=
EXTT5=
PLAYORDER=
